# xmcd
#
# Track frame offsets:
#	150
#	18567
#	33185
#	45445
#	63527
#	82577
#	92717
#	103085
#	116167
#	127037
#	138800
#	150070
#
# Disc length: 2237 seconds
# Revision: 0
# Processed by: cddbd v1.5.2PL0 Copyright (c) Steve Scherf et al.
# Submitted via: dBpowerAMP V12.0
#
DISCID=8a08bb0c
DTITLE=Various Artist - Classic Christmas
DYEAR=2000
DGENRE=Country
TTITLE0=Billy Gilman - White Christmas
TTITLE1=Billy Gilman - Warm and Fuzzy
TTITLE2=Billy Gilman - Winter Wonderland
TTITLE3=Billy Gilman - The Christmas Song
TTITLE4=Billy Gilman - There's a New Kid in Town
TTITLE5=Billy Gilman - Jingle Bell Rock
TTITLE6=Billy Gilman - Rockin' Around the Christmas Tree
TTITLE7=Billy Gilman - Angels We Have Heard on High
TTITLE8=Billy Gilman - Silent Night
TTITLE9=Billy Gilman and Charlotte Church - Away in a Manger
TTITLE10=Billy Gilman - Sleigh Ride
TTITLE11=Billy Gilman - O Holy Night
EXTD=
EXTT0=
EXTT1=
EXTT2=
EXTT3=
EXTT4=
EXTT5=
EXTT6=
EXTT7=
EXTT8=
EXTT9=
EXTT10=
EXTT11=
PLAYORDER=
